#Comment line ignore any data following # character 
#Hierarchical Translation and Rotation (.htr) file 
[Header]	
#Header keywords are followed by a single value 
FileType HTR		#Single word string
DataType HTRS		#Translation followed by rotation and scale data
FileVersion 1		#integer
NumSegments 84		#integer
NumFrames 2		#integer
DataFrameRate 30		#integer, data frame rate in this file
EulerRotationOrder ZYX
CalibrationUnits mm
RotationUnits Degrees
GlobalAxisofGravity Y
BoneLengthAxis Y
ScaleFactor 1.00
[SegmentNames&Hierarchy]
#CHILD	PARENT
MASTER GLOBAL
root MASTER
chest root
L_mid_tent01 root
R_mid_tent01 root
spine01 root
Bip01_Neck chest
L_humerus chest
R_humerus chest
weapon_bone chest
Bip01_Head Bip01_Neck
eye_left_bone Bip01_Head
eye_right_bone Bip01_Head
L_forearm L_humerus
L_front_hand L_forearm
L_weapon_bone L_forearm
L_front_hand01_01 L_front_hand
L_front_hand02_01 L_front_hand
L_front_hand03_01 L_front_hand
L_front_hand01_02 L_front_hand01_01
L_front_hand02_02 L_front_hand02_01
L_front_hand03_02 L_front_hand03_01
R_forearm R_humerus
R_front_hand R_forearm
R_weapon_bone R_forearm
R_front_hand01_01 R_front_hand
R_front_hand02_01 R_front_hand
R_front_hand03_01 R_front_hand
R_front_hand01_02 R_front_hand01_01
R_front_hand02_02 R_front_hand02_01
R_front_hand03_02 R_front_hand03_01
null_rope01_connect L_mid_tent01
Rope1_Seg01 null_rope01_connect
Rope1_Seg02 Rope1_Seg01
Rope1_Seg03 Rope1_Seg02
Rope1_Seg04 Rope1_Seg03
Rope1_Seg05 Rope1_Seg04
Rope1_Seg06 Rope1_Seg05
Rope1_Seg07 Rope1_Seg06
Rope1_Seg09 Rope1_Seg07
L_mid_hand01 Rope1_Seg09
L_mid_hand02 Rope1_Seg09
L_mid_hand03 Rope1_Seg09
null_rope02_connect R_mid_tent01
Rope2_Seg01 null_rope02_connect
Rope2_Seg02 Rope2_Seg01
Rope2_Seg03 Rope2_Seg02
Rope2_Seg04 Rope2_Seg03
Rope2_Seg05 Rope2_Seg04
Rope2_Seg06 Rope2_Seg05
Rope2_Seg07 Rope2_Seg06
Rope2_Seg09 Rope2_Seg07
R_mid_hand01 Rope2_Seg09
R_mid_hand02 Rope2_Seg09
R_mid_hand03 Rope2_Seg09
spine02 spine01
spine03 spine02
pelvis spine03
null_rope03_connect pelvis
null_rope04_connect pelvis
Rope3_Seg01 null_rope03_connect
Rope3_Seg02 Rope3_Seg01
Rope3_Seg03 Rope3_Seg02
Rope3_Seg04 Rope3_Seg03
Rope3_Seg05 Rope3_Seg04
Rope3_Seg06 Rope3_Seg05
Rope3_Seg07 Rope3_Seg06
Rope3_Seg08 Rope3_Seg07
Rope3_Seg09 Rope3_Seg08
R_rear_hand01 Rope3_Seg09
R_rear_hand02 Rope3_Seg09
R_rear_hand03 Rope3_Seg09
Rope4_Seg01 null_rope04_connect
Rope4_Seg02 Rope4_Seg01
Rope4_Seg03 Rope4_Seg02
Rope4_Seg04 Rope4_Seg03
Rope4_Seg05 Rope4_Seg04
Rope4_Seg06 Rope4_Seg05
Rope4_Seg07 Rope4_Seg06
Rope4_Seg08 Rope4_Seg07
Rope4_Seg09 Rope4_Seg08
L_rear_hand01 Rope4_Seg09
L_rear_hand02 Rope4_Seg09
L_rear_hand03 Rope4_Seg09
[BasePosition]
#SegmentName Tx, Ty, Tz, Rx, Ry, Rz, BoneLength
MASTER 0.000000 0.000000 0.000000 -90.000000 0.000000 0.000000 10.000000 
root 0.000000 0.000000 0.000000 0.000000 0.000000 0.000000 10.000000 
chest 0.000000 0.000000 0.000000 0.000000 0.000000 0.000000 10.000000 
L_mid_tent01 0.000000 0.000000 0.000000 0.000000 0.000000 0.000000 10.000000 
R_mid_tent01 0.000000 0.000000 0.000000 0.000000 0.000000 0.000000 10.000000 
spine01 0.000000 0.000000 0.000000 0.000000 0.000000 0.000000 10.000000 
Bip01_Neck 0.000000 0.000000 0.000000 0.000000 0.000000 0.000000 10.000000 
L_humerus 0.000000 0.000000 0.000000 0.000000 0.000000 0.000000 10.000000 
R_humerus 0.000000 0.000000 0.000000 0.000000 0.000000 0.000000 10.000000 
weapon_bone 0.000000 0.000000 0.000000 0.000000 0.000000 0.000000 10.000000 
Bip01_Head 0.000000 0.000000 0.000000 0.000000 0.000000 0.000000 10.000000 
eye_left_bone 0.000000 0.000000 0.000000 0.000000 0.000000 0.000000 10.000000 
eye_right_bone 0.000000 0.000000 0.000000 0.000000 0.000000 0.000000 10.000000 
L_forearm 0.000000 0.000000 0.000000 0.000000 0.000000 0.000000 10.000000 
L_front_hand 0.000000 0.000000 0.000000 0.000000 0.000000 0.000000 10.000000 
L_weapon_bone 0.000000 0.000000 0.000000 0.000000 0.000000 0.000000 10.000000 
L_front_hand01_01 0.000000 0.000000 0.000000 0.000000 0.000000 0.000000 10.000000 
L_front_hand02_01 0.000000 0.000000 0.000000 0.000000 0.000000 0.000000 10.000000 
L_front_hand03_01 0.000000 0.000000 0.000000 0.000000 0.000000 0.000000 10.000000 
L_front_hand01_02 0.000000 0.000000 0.000000 0.000000 0.000000 0.000000 10.000000 
L_front_hand02_02 0.000000 0.000000 0.000000 0.000000 0.000000 0.000000 10.000000 
L_front_hand03_02 0.000000 0.000000 0.000000 0.000000 0.000000 0.000000 10.000000 
R_forearm 0.000000 0.000000 0.000000 0.000000 0.000000 0.000000 10.000000 
R_front_hand 0.000000 0.000000 0.000000 0.000000 0.000000 0.000000 10.000000 
R_weapon_bone 0.000000 0.000000 0.000000 0.000000 0.000000 0.000000 10.000000 
R_front_hand01_01 0.000000 0.000000 0.000000 0.000000 0.000000 0.000000 10.000000 
R_front_hand02_01 0.000000 0.000000 0.000000 0.000000 0.000000 0.000000 10.000000 
R_front_hand03_01 0.000000 0.000000 0.000000 0.000000 0.000000 0.000000 10.000000 
R_front_hand01_02 0.000000 0.000000 0.000000 0.000000 0.000000 0.000000 10.000000 
R_front_hand02_02 0.000000 0.000000 0.000000 0.000000 0.000000 0.000000 10.000000 
R_front_hand03_02 0.000000 0.000000 0.000000 0.000000 0.000000 0.000000 10.000000 
null_rope01_connect 0.000000 0.000000 0.000000 0.000000 0.000000 0.000000 10.000000 
Rope1_Seg01 0.000000 0.000000 0.000000 0.000000 0.000000 0.000000 10.000000 
Rope1_Seg02 0.000000 0.000000 0.000000 0.000000 0.000000 0.000000 10.000000 
Rope1_Seg03 0.000000 0.000000 0.000000 0.000000 0.000000 0.000000 10.000000 
Rope1_Seg04 0.000000 0.000000 0.000000 0.000000 0.000000 0.000000 10.000000 
Rope1_Seg05 0.000000 0.000000 0.000000 0.000000 0.000000 0.000000 10.000000 
Rope1_Seg06 0.000000 0.000000 0.000000 0.000000 0.000000 0.000000 10.000000 
Rope1_Seg07 0.000000 0.000000 0.000000 0.000000 0.000000 0.000000 10.000000 
Rope1_Seg09 0.000000 0.000000 0.000000 0.000000 0.000000 0.000000 10.000000 
L_mid_hand01 0.000000 0.000000 0.000000 0.000000 0.000000 0.000000 10.000000 
L_mid_hand02 0.000000 0.000000 0.000000 0.000000 0.000000 0.000000 10.000000 
L_mid_hand03 0.000000 0.000000 0.000000 0.000000 0.000000 0.000000 10.000000 
null_rope02_connect 0.000000 0.000000 0.000000 0.000000 0.000000 0.000000 10.000000 
Rope2_Seg01 0.000000 0.000000 0.000000 0.000000 0.000000 0.000000 10.000000 
Rope2_Seg02 0.000000 0.000000 0.000000 0.000000 0.000000 0.000000 10.000000 
Rope2_Seg03 0.000000 0.000000 0.000000 0.000000 0.000000 0.000000 10.000000 
Rope2_Seg04 0.000000 0.000000 0.000000 0.000000 0.000000 0.000000 10.000000 
Rope2_Seg05 0.000000 0.000000 0.000000 0.000000 0.000000 0.000000 10.000000 
Rope2_Seg06 0.000000 0.000000 0.000000 0.000000 0.000000 0.000000 10.000000 
Rope2_Seg07 0.000000 0.000000 0.000000 0.000000 0.000000 0.000000 10.000000 
Rope2_Seg09 0.000000 0.000000 0.000000 0.000000 0.000000 0.000000 10.000000 
R_mid_hand01 0.000000 0.000000 0.000000 0.000000 0.000000 0.000000 10.000000 
R_mid_hand02 0.000000 0.000000 0.000000 0.000000 0.000000 0.000000 10.000000 
R_mid_hand03 0.000000 0.000000 0.000000 0.000000 0.000000 0.000000 10.000000 
spine02 0.000000 0.000000 0.000000 0.000000 0.000000 0.000000 10.000000 
spine03 0.000000 0.000000 0.000000 0.000000 0.000000 0.000000 10.000000 
pelvis 0.000000 0.000000 0.000000 0.000000 0.000000 0.000000 10.000000 
null_rope03_connect 0.000000 0.000000 0.000000 0.000000 0.000000 0.000000 10.000000 
null_rope04_connect 0.000000 0.000000 0.000000 0.000000 0.000000 0.000000 10.000000 
Rope3_Seg01 0.000000 0.000000 0.000000 0.000000 0.000000 0.000000 10.000000 
Rope3_Seg02 0.000000 0.000000 0.000000 0.000000 0.000000 0.000000 10.000000 
Rope3_Seg03 0.000000 0.000000 0.000000 0.000000 0.000000 0.000000 10.000000 
Rope3_Seg04 0.000000 0.000000 0.000000 0.000000 0.000000 0.000000 10.000000 
Rope3_Seg05 0.000000 0.000000 0.000000 0.000000 0.000000 0.000000 10.000000 
Rope3_Seg06 0.000000 0.000000 0.000000 0.000000 0.000000 0.000000 10.000000 
Rope3_Seg07 0.000000 0.000000 0.000000 0.000000 0.000000 0.000000 10.000000 
Rope3_Seg08 0.000000 0.000000 0.000000 0.000000 0.000000 0.000000 10.000000 
Rope3_Seg09 0.000000 0.000000 0.000000 0.000000 0.000000 0.000000 10.000000 
R_rear_hand01 0.000000 0.000000 0.000000 0.000000 0.000000 0.000000 10.000000 
R_rear_hand02 0.000000 0.000000 0.000000 0.000000 0.000000 0.000000 10.000000 
R_rear_hand03 0.000000 0.000000 0.000000 0.000000 0.000000 0.000000 10.000000 
Rope4_Seg01 0.000000 0.000000 0.000000 0.000000 0.000000 0.000000 10.000000 
Rope4_Seg02 0.000000 0.000000 0.000000 0.000000 0.000000 0.000000 10.000000 
Rope4_Seg03 0.000000 0.000000 0.000000 0.000000 0.000000 0.000000 10.000000 
Rope4_Seg04 0.000000 0.000000 0.000000 0.000000 0.000000 0.000000 10.000000 
Rope4_Seg05 0.000000 0.000000 0.000000 0.000000 0.000000 0.000000 10.000000 
Rope4_Seg06 0.000000 0.000000 0.000000 0.000000 0.000000 0.000000 10.000000 
Rope4_Seg07 0.000000 0.000000 0.000000 0.000000 0.000000 0.000000 10.000000 
Rope4_Seg08 0.000000 0.000000 0.000000 0.000000 0.000000 0.000000 10.000000 
Rope4_Seg09 0.000000 0.000000 0.000000 0.000000 0.000000 0.000000 10.000000 
L_rear_hand01 0.000000 0.000000 0.000000 0.000000 0.000000 0.000000 10.000000 
L_rear_hand02 0.000000 0.000000 0.000000 0.000000 0.000000 0.000000 10.000000 
L_rear_hand03 0.000000 0.000000 0.000000 0.000000 0.000000 0.000000 10.000000 
#Beginning of Data. Separated by tabs
#Fr	Tx	Ty	Tz	Rx	Ry	Rz	SF
[MASTER]
21 0.000000 0.000000 0.000000 0.001660 0.001660 0.001660 0.000000
22 0.000000 0.000000 0.000000 0.001660 0.001660 0.001660 0.000000
[root]
21 -56.043949 -4.919372 1213.703979 -87.606270 -28.733215 -87.380814 1215.007202
22 -51.363461 -11.773232 1282.203491 -88.083534 -28.354616 -87.704742 1283.285889
[chest]
21 -84.512650 -34.090519 0.000000 0.215627 -0.468143 -153.888199 91.129311
22 -84.512650 -34.090519 0.000000 -0.025845 -0.329642 -156.710556 91.129311
[L_mid_tent01]
21 27.318439 22.166664 -250.038300 1.853513 31.566006 78.546486 252.501099
22 27.313725 22.169355 -250.008224 3.479878 34.337826 81.018303 252.471054
[R_mid_tent01]
21 23.228794 24.509907 226.238495 165.456635 -43.534184 83.153137 228.744751
22 23.228794 24.509907 226.238495 162.086365 -45.839161 86.728714 228.744751
[spine01]
21 -0.361383 -0.195265 0.000000 0.001913 0.001360 19.177393 0.410763
22 -0.361383 -0.195265 0.000000 0.001910 0.001364 18.917467 0.410763
[Bip01_Neck]
21 165.484543 71.581718 0.000119 175.896118 1.177290 24.871183 180.302734
22 165.484543 71.581718 0.000119 175.896118 1.177290 24.871183 180.302734
[L_humerus]
21 -13.983130 -135.272980 -120.471481 -178.566711 2.773942 -94.420372 181.680161
22 -13.983130 -135.272980 -120.471481 -179.159180 3.937951 -104.136986 181.680161
[R_humerus]
21 -13.983309 -135.273102 125.287651 -178.533142 -1.105581 -99.476555 184.909012
22 -13.983309 -135.273102 125.287651 -179.111786 -1.303908 -110.660172 184.909012
[weapon_bone]
21 235.964890 -300.705902 0.000000 0.000000 -89.951546 -128.212341 382.234833
22 235.964890 -300.705902 0.000000 0.000000 -89.951546 -128.212341 382.234833
[Bip01_Head]
21 102.819817 23.735609 5.410265 3.150731 3.423701 -20.839088 105.662506
22 102.819824 23.735619 5.410259 3.150732 3.423701 -20.839092 105.662506
[eye_left_bone]
21 -24.626970 125.451866 -64.772606 0.000000 -90.000000 -99.840431 143.318359
22 -24.626970 125.451866 -64.772606 0.000000 -90.000000 -99.840431 143.318359
[eye_right_bone]
21 -24.626970 125.451866 64.327362 0.000000 -89.960434 80.159386 143.117676
22 -24.626970 125.451866 64.327362 0.000000 -89.960434 80.159386 143.117676
[L_forearm]
21 322.776093 0.000000 -0.000119 0.000017 0.002347 -89.149834 322.776093
22 322.776093 0.000000 -0.000119 0.000017 0.002347 -89.149834 322.776093
[L_front_hand]
21 241.149185 -0.042021 -3.300071 -177.839188 0.697872 -99.318787 241.171753
22 241.149185 -0.042021 -3.300071 -177.829239 0.664472 -98.460030 241.171753
[L_weapon_bone]
21 153.638245 18.339096 0.000458 0.002010 0.001212 27.819639 154.728897
22 153.432007 19.824455 0.000534 0.001998 0.001233 26.623682 154.707428
[L_front_hand01_01]
21 86.095154 20.947098 -0.655860 0.405585 -0.442306 -4.620490 88.609184
22 86.095154 20.947098 -0.655860 0.405585 -0.442306 -4.620490 88.609184
[L_front_hand02_01]
21 86.935165 -11.437475 24.513514 116.959450 3.630817 1.495453 91.046425
22 86.935165 -11.437475 24.513514 116.959450 3.630818 1.495453 91.046425
[L_front_hand03_01]
21 86.637497 -14.123976 -20.424902 -118.420097 -4.656303 -0.152527 90.126129
22 86.637497 -14.123976 -20.424902 -118.420097 -4.656303 -0.152527 90.126129
[L_front_hand01_02]
21 71.020905 -0.000179 0.000030 0.000004 -0.000005 -8.379269 71.020905
22 71.020905 -0.000179 0.000030 0.000004 -0.000005 -8.379269 71.020905
[L_front_hand02_02]
21 71.020927 -0.000119 0.000060 -0.000005 -0.000004 -8.379259 71.020927
22 71.020927 -0.000119 0.000060 -0.000005 -0.000004 -8.379259 71.020927
[L_front_hand03_02]
21 71.020905 -0.000060 0.000060 0.000015 -0.000040 -8.379267 71.020905
22 71.020905 -0.000060 0.000060 0.000015 -0.000040 -8.379267 71.020905
[R_forearm]
21 322.776428 -0.000060 0.000030 0.209839 -0.001325 -90.557983 322.776428
22 322.776428 -0.000060 0.000030 0.209840 -0.001096 -90.683212 322.776428
[R_front_hand]
21 238.847015 -0.006795 2.210259 -1.683875 -0.390279 -91.793968 238.857239
22 238.847015 -0.006795 2.210259 -1.678344 -0.412446 -92.553596 238.857239
[R_weapon_bone]
21 155.664093 0.002503 -0.000030 0.003271 0.001687 -108.173012 155.664078
22 155.664093 0.002503 -0.000030 0.003287 0.001656 -107.069969 155.664078
[R_front_hand01_01]
21 87.624611 14.231146 22.918642 -116.960213 3.496675 -1.324139 91.683487
22 87.624611 14.231146 22.918642 -116.960213 3.496675 -1.324139 91.683487
[R_front_hand02_01]
21 89.356956 14.367283 -19.491137 118.419647 -4.257089 0.609827 92.579636
22 89.356956 14.367283 -19.491137 118.419647 -4.257089 0.609827 92.579636
[R_front_hand03_01]
21 87.286232 -22.307278 -0.143439 -0.387970 -0.231462 4.232001 90.091743
22 87.286232 -22.307278 -0.143439 -0.387970 -0.231462 4.232001 90.091743
[R_front_hand01_02]
21 71.020905 0.000060 0.000119 -0.000005 -0.000020 8.379271 71.020905
22 71.020905 0.000060 0.000119 -0.000005 -0.000020 8.379271 71.020905
[R_front_hand02_02]
21 71.020844 -0.000030 -0.000119 0.000000 -0.000021 8.379271 71.020836
22 71.020844 -0.000030 -0.000119 0.000000 -0.000021 8.379271 71.020836
[R_front_hand03_02]
21 71.020905 0.000000 0.000030 -0.000001 -0.000020 8.379275 71.020905
22 71.020905 0.000000 0.000030 -0.000001 -0.000020 8.379275 71.020905
[null_rope01_connect]
21 328.732483 0.000000 -0.000238 -138.725952 -62.483288 179.742172 328.732483
22 328.732483 0.000000 -0.000238 -138.441437 -58.916584 177.177032 328.732483
[Rope1_Seg01]
21 0.000033 -0.000054 0.000087 121.417038 -28.896059 137.673462 0.000108
22 0.000031 -0.000053 0.000092 116.530975 -12.271619 131.999420 0.000110
[Rope1_Seg02]
21 139.999863 -0.000179 0.000000 -13.784113 -29.972059 -5.373054 139.999863
22 139.999863 -0.000179 0.000000 -12.626274 -29.074078 -6.981498 139.999863
[Rope1_Seg03]
21 139.999924 0.000060 -0.000060 -22.654650 -35.302971 -21.695467 139.999924
22 139.999924 0.000060 -0.000060 -16.829718 -25.827997 -14.959836 139.999924
[Rope1_Seg04]
21 139.999924 -0.000060 -0.000119 -8.764449 -11.771665 -6.303015 139.999924
22 139.999924 -0.000060 -0.000119 -7.205480 -9.436736 -5.252776 139.999924
[Rope1_Seg05]
21 139.999832 0.000119 -0.000060 -2.498514 -3.825387 -0.563303 139.999832
22 139.999832 0.000119 -0.000060 -2.200394 -2.702854 -1.455614 139.999832
[Rope1_Seg06]
21 139.999954 0.000119 -0.000060 -1.778087 -1.848755 -1.295455 139.999954
22 139.999954 0.000119 -0.000060 -1.427043 -1.458050 -1.231662 139.999954
[Rope1_Seg07]
21 139.999985 0.000060 0.000000 -1.112921 -1.119359 -0.838215 139.999985
22 139.999985 0.000060 0.000000 -0.892323 -0.894794 -0.792630 139.999985
[Rope1_Seg09]
21 121.602913 0.000119 -0.000089 -89.793175 -1.359789 0.847147 121.602913
22 121.602913 0.000119 -0.000089 -89.793175 -1.359789 0.847147 121.602913
[L_mid_hand01]
21 103.859421 1.038730 8.195221 104.352036 0.341479 -0.444583 104.187431
22 103.859421 1.038730 8.195221 104.352036 0.341479 -0.444583 104.187431
[L_mid_hand02]
21 105.572853 -4.139662 -10.864139 -135.608444 3.905687 -3.381056 106.211075
22 105.572853 -4.139662 -10.864139 -135.608444 3.905687 -3.381056 106.211075
[L_mid_hand03]
21 104.641464 17.579376 -3.913581 -18.761518 -0.324361 2.942912 106.179977
22 104.641464 17.579376 -3.913581 -18.761520 -0.324361 2.942913 106.179977
[null_rope02_connect]
21 328.732849 0.000179 -0.000119 -123.521156 40.263252 15.268905 328.732849
22 328.732849 0.000179 -0.000119 -123.829269 37.921516 17.135036 328.732849
[Rope2_Seg01]
21 0.000131 0.000114 -0.000087 -39.094513 -21.364334 24.172010 0.000194
22 0.000130 0.000114 -0.000092 -46.052811 -0.583407 31.118954 0.000196
[Rope2_Seg02]
21 139.999741 -0.000060 -0.000119 -2.067091 6.309589 46.156639 139.999756
22 139.999741 -0.000060 -0.000119 -4.134210 -0.885245 35.430061 139.999756
[Rope2_Seg03]
21 140.000107 0.000030 0.000000 4.698329 -1.991147 34.710011 140.000107
22 140.000107 0.000030 0.000000 2.241765 -6.894088 26.107183 140.000107
[Rope2_Seg04]
21 139.999802 0.000000 -0.000060 2.056754 -13.455518 14.116279 139.999802
22 139.999802 0.000000 -0.000060 2.638448 -12.023918 13.957165 139.999802
[Rope2_Seg05]
21 139.999985 -0.000060 0.000119 2.138158 -3.399958 4.769577 139.999985
22 139.999985 -0.000060 0.000119 2.036285 -2.858350 4.375476 139.999985
[Rope2_Seg06]
21 139.999893 -0.000030 -0.000119 1.501433 -1.477541 2.633865 139.999893
22 139.999893 -0.000030 -0.000119 1.358090 -1.353121 2.439217 139.999893
[Rope2_Seg07]
21 139.999893 0.000060 -0.000060 1.022792 -0.873845 1.660727 139.999893
22 139.999893 0.000060 -0.000060 0.925537 -0.812151 1.548184 139.999893
[Rope2_Seg09]
21 121.338966 0.000089 -0.000060 33.793236 -1.359788 -0.847141 121.338966
22 121.338966 0.000089 -0.000060 33.793236 -1.359788 -0.847141 121.338966
[R_mid_hand01]
21 104.680779 11.144459 -10.335981 -47.384243 2.963521 5.452602 105.778534
22 104.680779 11.144459 -10.335981 -47.384243 2.963521 5.452602 105.778534
[R_mid_hand02]
21 104.070427 2.443552 8.231699 75.626297 -2.250001 1.111093 104.424065
22 104.070427 2.443552 8.231699 75.626297 -2.250001 1.111093 104.424065
[R_mid_hand03]
21 106.028137 -11.221827 -5.996406 -164.381912 2.495983 -6.140520 106.788818
22 106.028137 -11.221827 -5.996406 -164.381927 2.495983 -6.140520 106.788818
[spine02]
21 129.756927 0.001550 0.000119 -1.003505 -3.941247 6.304491 129.756927
22 129.756927 0.001550 0.000119 -0.948773 -3.953974 5.569315 129.756927
[spine03]
21 78.900276 0.037613 -2.104547 -0.586376 4.445580 -16.580193 78.928345
22 78.881203 0.040975 -2.290833 -0.536120 4.432378 -15.988095 78.914474
[pelvis]
21 169.435242 0.051022 0.000000 -3.799248 -1.921385 6.679627 169.435257
22 169.435242 0.051022 0.000000 -3.527983 -1.817847 6.077973 169.435257
[null_rope03_connect]
21 -1.257226 -2.466202 137.391083 118.406616 -85.145905 -15.099090 137.418976
22 -1.257226 -2.466202 137.391083 123.126526 -85.636147 -19.211191 137.418976
[null_rope04_connect]
21 -1.259640 -2.480268 -137.844437 118.406616 -85.145905 -15.099090 137.872513
22 -1.259640 -2.480268 -137.844437 123.126526 -85.636147 -19.211191 137.872513
[Rope3_Seg01]
21 -0.000042 0.000027 -0.000004 -131.279724 -50.587837 -84.534195 0.000050
22 -0.000042 0.000023 -0.000004 -130.997513 -47.030548 -84.275757 0.000048
[Rope3_Seg02]
21 139.999924 -0.000119 0.000060 -0.672935 1.403257 -4.954278 139.999924
22 139.999924 -0.000119 0.000060 -0.834078 1.600487 -6.275164 139.999924
[Rope3_Seg03]
21 139.999924 -0.000119 0.000119 -1.388458 1.981144 -6.739007 139.999924
22 139.999924 -0.000119 0.000119 -1.832262 2.267209 -8.437708 139.999924
[Rope3_Seg04]
21 139.999924 0.000119 0.000000 -2.895650 2.735866 -9.460732 139.999924
22 139.999924 0.000119 0.000000 -3.625167 2.264103 -11.616079 139.999924
[Rope3_Seg05]
21 139.999924 -0.000238 0.000060 -5.811444 1.881563 -15.448599 139.999924
22 139.999924 -0.000238 0.000060 -7.146505 2.411130 -15.715233 139.999924
[Rope3_Seg06]
21 139.999893 -0.000119 -0.000060 -11.713926 9.629549 -12.592790 139.999893
22 139.999893 -0.000119 -0.000060 -11.154154 11.361130 -8.721935 139.999893
[Rope3_Seg07]
21 139.999771 0.000060 -0.000119 -6.014377 11.858267 -0.304843 139.999771
22 139.999771 0.000060 -0.000119 -5.110586 11.182644 0.436177 139.999771
[Rope3_Seg08]
21 139.999985 -0.000060 0.000000 -2.270655 6.189748 -0.160765 139.999985
22 139.999985 -0.000060 0.000000 -2.086404 5.476913 -0.692409 139.999985
[Rope3_Seg09]
21 90.185997 -0.000179 -0.000060 89.793228 -1.359877 -0.847183 90.185997
22 90.185997 -0.000179 -0.000060 89.793228 -1.359877 -0.847183 90.185997
[R_rear_hand01]
21 103.366196 -6.073594 -10.757982 -156.049316 6.070419 -2.795869 104.101845
22 103.366196 -6.073594 -10.757982 -156.049316 6.070419 -2.795869 104.101845
[R_rear_hand02]
21 100.509819 12.039542 -7.992327 -38.708439 1.958052 5.461187 101.543350
22 100.509819 12.039542 -7.992327 -38.708424 1.958050 5.461185 101.543350
[R_rear_hand03]
21 101.539970 5.215704 5.435467 84.307625 -2.361032 4.099037 101.819031
22 101.539970 5.215704 5.435467 84.307625 -2.361032 4.099037 101.819031
[Rope4_Seg01]
21 -0.000016 -0.000033 -0.000120 35.004562 -55.598034 -79.326477 0.000125
22 -0.000017 -0.000038 -0.000122 36.769173 -53.019688 -81.562195 0.000129
[Rope4_Seg02]
21 139.999985 0.000060 0.000119 0.222965 -5.966603 0.505098 139.999985
22 139.999985 0.000060 0.000119 0.289971 -7.255050 0.533363 139.999985
[Rope4_Seg03]
21 139.999924 0.000000 -0.000238 0.842541 -8.930746 0.794108 139.999924
22 139.999924 0.000000 -0.000238 1.124238 -10.293212 0.824087 139.999924
[Rope4_Seg04]
21 139.999985 0.000000 0.000119 2.664280 -15.099800 -0.476300 139.999985
22 139.999985 0.000000 0.000119 2.806500 -16.332603 -2.965266 139.999985
[Rope4_Seg05]
21 139.999802 -0.000060 -0.000119 9.305058 -24.120413 -1.812944 139.999802
22 139.999802 -0.000060 -0.000119 8.988163 -18.607758 1.623160 139.999802
[Rope4_Seg06]
21 139.999924 0.000000 0.000060 18.639841 -7.295942 17.485987 139.999924
22 139.999924 0.000000 0.000060 14.674113 -1.137613 18.806362 139.999924
[Rope4_Seg07]
21 139.999802 0.000000 0.000000 8.118527 6.970379 14.815017 139.999802
22 139.999802 0.000000 0.000000 5.556784 4.143487 11.328793 139.999802
[Rope4_Seg08]
21 139.999924 0.000000 0.000119 1.375923 1.434735 6.482331 139.999924
22 139.999924 0.000000 0.000119 0.545206 0.899003 4.918705 139.999924
[Rope4_Seg09]
21 90.185791 0.000060 0.000060 -135.617828 2.228885 0.850567 90.185791
22 90.185791 0.000060 0.000060 -135.617828 2.228885 0.850567 90.185791
[L_rear_hand01]
21 101.696655 -8.392275 -7.654577 -38.746349 0.246096 177.290207 102.329041
22 101.696655 -8.392275 -7.654577 -38.746349 0.246096 177.290207 102.329041
[L_rear_hand02]
21 102.726799 -1.568258 5.773216 84.315163 -1.142796 176.247437 102.900848
22 102.726799 -1.568258 5.773216 84.315163 -1.142796 176.247437 102.900848
[L_rear_hand03]
21 104.552910 9.721220 -10.420293 -155.747955 -4.630845 179.564758 105.519653
22 104.552910 9.721220 -10.420293 -155.747955 -4.630845 179.564758 105.519653
